HIERARCHY
ROOT joint_Root
{
	OFFSET 0.0 0.0 0.0
	CHANNELS 6 Xposition Yposition Zposition Zrotation Xrotation Yrotation 
	JOINT Hips
	{
		OFFSET 4.5925 91.4895 -427.239
		CHANNELS 6 Xposition Yposition Zposition Zrotation Xrotation Yrotation 
		JOINT Spine
		{
			OFFSET 15.7357 0.0 0.0
			CHANNELS 6 Xposition Yposition Zposition Zrotation Xrotation Yrotation 
			JOINT Chest
			{
				OFFSET 8.98455 -0.406207 0.0
				CHANNELS 6 Xposition Yposition Zposition Zrotation Xrotation Yrotation 
				JOINT Neck
				{
					OFFSET 16.3773 0.0 0.0
					CHANNELS 6 Xposition Yposition Zposition Zrotation Xrotation Yrotation 
					JOINT Head
					{
						OFFSET 6.45672 0.0 0.0
						CHANNELS 6 Xposition Yposition Zposition Zrotation Xrotation Yrotation 
						End Site
						{
							OFFSET 0.0 0.0 0.0
						}
					}
				}
				JOINT Shoulder_L
				{
					OFFSET 12.9942 -0.242716 4.98039
					CHANNELS 6 Xposition Yposition Zposition Zrotation Xrotation Yrotation 
					JOINT UpperArm_L
					{
						OFFSET 5.34809 0.0 0.0
						CHANNELS 6 Xposition Yposition Zposition Zrotation Xrotation Yrotation 
						JOINT LowerArm_L
						{
							OFFSET 24.3286 1.87007e-05 0.0
							CHANNELS 6 Xposition Yposition Zposition Zrotation Xrotation Yrotation 
							JOINT Hand_L
							{
								OFFSET 22.2916 0.0 0.0
								CHANNELS 6 Xposition Yposition Zposition Zrotation Xrotation Yrotation 
								End Site
								{
									OFFSET 0.0 0.0 0.0
								}
							}
						}
					}
				}
				JOINT Shoulder_R
				{
					OFFSET 12.9945 -0.242716 -4.98039
					CHANNELS 6 Xposition Yposition Zposition Zrotation Xrotation Yrotation 
					JOINT UpperArm_R
					{
						OFFSET -5.34813 0.0 0.0
						CHANNELS 6 Xposition Yposition Zposition Zrotation Xrotation Yrotation 
						JOINT LowerArm_R
						{
							OFFSET -24.3289 0.000322201 0.0
							CHANNELS 6 Xposition Yposition Zposition Zrotation Xrotation Yrotation 
							JOINT Hand_R
							{
								OFFSET -22.2915 -0.000108084 0.0
								CHANNELS 6 Xposition Yposition Zposition Zrotation Xrotation Yrotation 
								End Site
								{
									OFFSET 0.0 0.0 0.0
								}
							}
						}
					}
				}
			}
		}
		JOINT UpperLeg_L
		{
			OFFSET -2.19248 -6.46944 0.0
			CHANNELS 6 Xposition Yposition Zposition Zrotation Xrotation Yrotation 
			JOINT LowerLeg_L
			{
				OFFSET 39.0811 0.0 -1.23785e-05
				CHANNELS 6 Xposition Yposition Zposition Zrotation Xrotation Yrotation 
				JOINT Foot_L
				{
					OFFSET 40.9854 0.0 -1.26872e-05
					CHANNELS 6 Xposition Yposition Zposition Zrotation Xrotation Yrotation 
					JOINT Toes_L
					{
						OFFSET 11.7543 0.0 0.0
						CHANNELS 6 Xposition Yposition Zposition Zrotation Xrotation Yrotation 
						End Site
						{
							OFFSET 0.0 0.0 0.0
						}
					}
				}
			}
		}
		JOINT UpperLeg_R
		{
			OFFSET -2.19251 6.46944 0.0
			CHANNELS 6 Xposition Yposition Zposition Zrotation Xrotation Yrotation 
			JOINT LowerLeg_R
			{
				OFFSET -39.0811 -0.00228153 -0.0401928
				CHANNELS 6 Xposition Yposition Zposition Zrotation Xrotation Yrotation 
				JOINT Foot_R
				{
					OFFSET -40.9854 0.0 0.0
					CHANNELS 6 Xposition Yposition Zposition Zrotation Xrotation Yrotation 
					JOINT Toes_R
					{
						OFFSET -11.7543 0.0 0.0
						CHANNELS 6 Xposition Yposition Zposition Zrotation Xrotation Yrotation 
						End Site
						{
							OFFSET 0.0 0.0 0.0
						}
					}
				}
			}
		}
	}
}
MOTION
Frames:	4
Frame Time:	0.0333333
0.000000 0.000000 0.000000 0.000000 0.000000 -0.000000 -1.566270 91.539800 1.578210 89.172600 -2.670860 2.697560 15.735700 0.000005 -0.000001 76.776300 88.090000 -76.790800 8.984550 -0.406207 -0.000000 -4.047690 -0.871737 -0.059776 16.377300 -0.000001 -0.000001 3.897480 -3.822180 2.476730 6.456720 -0.000001 -0.000000 1.207110 -3.746500 -0.916299 12.994200 -0.242716 4.980390 -84.775900 -10.129300 -62.530700 5.348090 -0.000007 -0.000001 -71.427300 -56.814600 -114.733000 24.328600 0.000019 0.000005 11.876100 9.614360 -51.543600 22.291600 -0.000001 0.000005 22.616900 5.227530 2.019230 12.994500 -0.242716 -4.980390 93.978300 -9.818250 -67.812100 -5.348130 -0.000001 -0.000004 -71.692400 -53.035200 -111.949000 -24.328900 0.000322 -0.000009 0.596437 0.405780 -55.828700 -22.291500 -0.000108 -0.000004 25.400900 5.510520 -6.963510 -2.192480 -6.469440 -0.000000 -174.675000 -12.281200 -3.246280 39.081100 -0.000007 -0.000012 -0.184950 0.391492 25.287300 40.985400 -0.000006 -0.000013 -1.037600 5.827470 -68.986900 11.754300 -0.000000 0.000003 -0.000194 -0.001802 -16.645600 -2.192510 6.469440 -0.000001 176.658000 21.945100 177.880000 -39.081100 -0.002282 -0.040193 -0.010686 0.030221 24.854600 -40.985400 0.000008 0.000006 8.133190 17.020400 -71.573200 -11.754300 -0.000006 -0.000006 -0.001848 -0.026793 -17.662600
0.000000 0.000000 0.000000 0.000000 0.000000 -0.000000 -1.588610 91.569900 1.513860 89.172300 -2.612590 2.575570 15.735700 0.000005 -0.000001 77.407200 88.043900 -77.438400 8.984550 -0.406207 -0.000000 -3.948440 -0.849184 -0.091747 16.377300 -0.000001 -0.000001 3.815080 -3.843250 2.437200 6.456720 -0.000001 -0.000000 0.889280 -3.780760 -0.790561 12.994200 -0.242716 4.980390 -84.807600 -10.044400 -62.479200 5.348090 -0.000007 -0.000001 -71.731600 -56.663500 -114.810000 24.328600 0.000019 0.000005 11.916200 9.354140 -52.396100 22.291600 -0.000001 0.000005 22.786500 5.228750 1.987720 12.994500 -0.242716 -4.980390 93.898900 -9.662810 -67.900700 -5.348130 -0.000001 -0.000004 -70.533900 -53.560100 -111.241000 -24.328900 0.000322 -0.000009 0.305273 0.208425 -55.788700 -22.291500 -0.000108 -0.000004 25.214200 5.509920 -6.938090 -2.192480 -6.469440 -0.000000 -174.669000 -12.417800 -3.361390 39.081100 -0.000007 -0.000012 -0.184081 0.392115 25.148300 40.985400 -0.000006 -0.000013 -1.027610 5.976660 -68.849000 11.754300 -0.000000 0.000003 -0.000189 -0.001767 -16.644300 -2.192510 6.469440 -0.000001 176.707000 22.154200 177.783000 -39.081100 -0.002282 -0.040193 -0.011023 0.031164 24.702800 -40.985400 0.000008 0.000006 8.103670 17.212600 -71.453000 -11.754300 -0.000006 -0.000006 -0.001855 -0.026884 -17.666300
0.000000 0.000000 0.000000 0.000000 0.000000 -0.000000 -1.607200 91.599900 1.431090 89.161000 -2.606360 2.358850 15.735700 0.000005 -0.000001 78.308900 88.017000 -78.353200 8.984550 -0.406207 -0.000000 -3.882780 -0.798650 -0.115723 16.377300 -0.000001 -0.000001 3.541180 -3.836610 2.371260 6.456720 -0.000001 -0.000000 0.694525 -3.813670 -0.611909 12.994200 -0.242716 4.980390 -84.906700 -9.805350 -62.374100 5.348090 -0.000007 -0.000001 -71.464400 -56.430400 -114.057000 24.328600 0.000019 0.000005 12.094400 8.946080 -54.031200 22.291600 -0.000001 0.000005 23.072800 5.223410 2.125200 12.994500 -0.242716 -4.980390 93.788100 -9.411260 -67.956100 -5.348130 -0.000001 -0.000004 -68.705100 -54.109900 -109.775000 -24.328900 0.000322 -0.000009 -0.322902 -0.216035 -56.105800 -22.291500 -0.000108 -0.000004 24.793800 5.508680 -6.887020 -2.192480 -6.469440 -0.000000 -174.685000 -12.530200 -3.585970 39.081100 -0.000007 -0.000012 -0.181256 0.388277 25.024400 40.985400 -0.000006 -0.000013 -1.012950 6.114290 -68.716400 11.754300 -0.000000 0.000003 -0.000187 -0.001747 -16.643600 -2.192510 6.469440 -0.000001 176.836000 22.250700 177.554000 -39.081100 -0.002282 -0.040193 -0.012121 0.033764 24.565300 -40.985400 0.000008 0.000006 8.092220 17.279800 -71.323400 -11.754300 -0.000006 -0.000006 -0.001769 -0.025783 -17.621500
0.000000 0.000000 0.000000 0.000000 0.000000 -0.000000 -1.613330 91.631300 1.349070 89.173600 -2.573650 2.240180 15.735700 0.000005 -0.000001 79.214800 87.952000 -79.278400 8.984550 -0.406207 -0.000000 -3.743020 -0.759634 -0.151891 16.377300 -0.000001 -0.000001 3.264140 -3.829760 2.319580 6.456720 -0.000001 -0.000000 0.501080 -3.842390 -0.435695 12.994200 -0.242716 4.980390 -85.080700 -9.477090 -62.402300 5.348090 -0.000007 -0.000001 -70.313300 -56.196500 -111.749000 24.328600 0.000019 0.000005 12.183500 8.022160 -57.122800 22.291600 -0.000001 0.000005 23.317100 5.224080 2.107660 12.994500 -0.242716 -4.980390 93.610200 -9.017280 -68.072400 -5.348130 -0.000001 -0.000004 -66.082500 -54.501100 -107.185000 -24.328900 0.000322 -0.000009 -1.289640 -0.830170 -57.201400 -22.291500 -0.000108 -0.000004 24.240600 5.501270 -6.582960 -2.192480 -6.469440 -0.000000 -174.718000 -12.647800 -3.693180 39.081100 -0.000007 -0.000012 -0.179582 0.387364 24.872700 40.985400 -0.000006 -0.000013 -0.989685 6.236710 -68.576300 11.754300 -0.000000 0.000003 -0.000188 -0.001754 -16.643900 -2.192510 6.469440 -0.000001 176.877000 22.397500 177.442000 -39.081100 -0.002282 -0.040193 -0.011179 0.031905 24.428500 -40.985400 0.000008 0.000006 8.105470 17.404900 -71.214200 -11.754300 -0.000006 -0.000006 -0.001855 -0.026887 -17.666400
